<svg width="364" height="62" viewBox="0 0 364 62" fill="none" xmlns="http://www.w3.org/2000/svg">
<g filter="url(#filter0_d_3_145)">
<path d="M44.2753 6.52608L28.1465 23.4007L47.0721 52.0222L30.8502 53.141L20.5949 31.4184L18.8235 33.1898L16.7725 52.3951L8.3818 53.141L4.00001 2.42397L22.1798 1.30522L19.7558 24.333L37.4695 1.30522L44.2753 6.52608ZM58.7259 53.8868C57.8557 53.8868 57.2342 53.8557 56.8613 53.7936C55.121 52.6127 53.7225 50.8724 52.6659 48.5727C51.6715 46.273 51.1743 43.6937 51.1743 40.8346C51.1743 37.9134 52.3862 35.7381 54.8102 34.3085C57.2963 32.8169 61.8335 32.071 68.4218 32.071C70.8457 32.071 73.4251 32.2264 76.1598 32.5372L75.9734 30.859C75.7869 28.808 74.8235 27.192 73.0832 26.0111C71.343 24.8302 69.1054 24.2397 66.3707 24.2397C63.6981 24.2397 61.0255 25.0788 58.3529 26.7569L54.9967 15.7558C59.3474 13.9534 64.3196 13.0522 69.9134 13.0522C75.5072 13.0522 79.9201 14.3263 83.1521 16.8746C86.4462 19.3607 88.0932 23.2764 88.0932 28.6215C88.0932 29.8646 88.0311 30.828 87.9068 31.5117L85.8557 52.5816L78.2109 53.2342L77.0921 42.2331H76.5327C74.7925 45.9001 72.3685 48.7592 69.2608 50.8102C66.2153 52.8613 62.7037 53.8868 58.7259 53.8868ZM76.4395 35.8002L72.4306 35.707C69.0744 35.707 66.3085 35.8935 64.1332 36.2664C63.4495 37.6959 63.1077 38.97 63.1077 40.0888C63.1077 41.2075 63.232 42.2952 63.4806 43.3518C63.7913 44.3463 64.1332 44.9989 64.5061 45.3097C70.5971 44.3774 74.5749 41.2075 76.4395 35.8002ZM121.936 26.9434C118.455 26.9434 115.814 28.1554 114.011 30.5794C112.271 33.0033 110.966 37.4473 110.095 43.9112L109.07 52.5816L101.518 53.2342L97.6959 15.3829L114.011 12.8657L112.426 25.0788H112.986C117.088 16.3152 122.277 11.6537 128.555 11.0943L126.411 27.3163C124.546 27.0677 123.054 26.9434 121.936 26.9434ZM159.6 21.0699C163.703 25.8557 165.754 31.2941 165.754 37.3851C165.754 43.4761 164.542 47.7647 162.118 50.2508C159.694 52.737 155.219 53.98 148.693 53.98C142.166 53.98 137.101 52.4883 133.496 49.505C131.01 37.323 132.44 27.4406 137.785 19.8579C141.141 15.1964 144.093 12.2131 146.642 10.9079C151.489 13.394 155.809 16.7814 159.6 21.0699ZM155.685 45.6826C156.493 42.5749 156.897 38.97 156.897 34.8679C156.897 30.7658 155.871 26.7259 153.82 22.7481C149.594 24.9856 146.082 28.404 143.285 33.0033C140.551 37.5405 139.183 42.1398 139.183 46.8013C140.799 47.1121 143.13 47.2675 146.175 47.2675C149.283 47.2675 152.453 46.7392 155.685 45.6826ZM200.622 21.0699C204.724 25.8557 206.775 31.2941 206.775 37.3851C206.775 43.4761 205.563 47.7647 203.139 50.2508C200.715 52.737 196.24 53.98 189.714 53.98C183.188 53.98 178.122 52.4883 174.517 49.505C172.031 37.323 173.461 27.4406 178.806 19.8579C182.162 15.1964 185.114 12.2131 187.663 10.9079C192.511 13.394 196.83 16.7814 200.622 21.0699ZM196.706 45.6826C197.514 42.5749 197.918 38.97 197.918 34.8679C197.918 30.7658 196.892 26.7259 194.841 22.7481C190.615 24.9856 187.103 28.404 184.306 33.0033C181.572 37.5405 180.204 42.1398 180.204 46.8013C181.82 47.1121 184.151 47.2675 187.196 47.2675C190.304 47.2675 193.474 46.7392 196.706 45.6826ZM245.838 12.1199C246.77 12.1199 247.734 12.3063 248.728 12.6792C251.339 15.7869 253.11 21.2253 254.042 28.9944C254.974 36.7636 255.441 44.4706 255.441 52.1154L241.736 53.2342C241.736 41.4872 241.301 30.828 240.431 21.2564C233.656 23.7425 229.15 34.1842 226.912 52.5816L219.361 53.2342L215.538 15.3829L231.854 12.8657L230.082 26.2908H230.828C232.879 21.8779 235.179 18.4284 237.727 15.9423C240.337 13.394 243.041 12.1199 245.838 12.1199ZM272.408 53.2342L269.145 22.4684L262.06 23.4007L261.594 15.5694L268.306 15.1964L267.188 4.56826L286.206 1.95782L284.622 14.3574L292.266 13.9845L291.987 19.1121L283.876 20.2309L279.96 52.5816L272.408 53.2342ZM311.751 10.9079C324.058 15.818 330.211 21.9711 330.211 29.3674C330.211 33.2209 329.123 35.9867 326.948 37.6648C324.772 39.343 321.292 40.182 316.506 40.182C311.782 40.182 308.209 39.9023 305.785 39.343C304.852 41.7048 304.355 44.1909 304.293 46.8013C306.593 47.1121 309.794 47.2675 313.896 47.2675C317.998 47.2675 322.411 46.4595 327.134 44.8435L329.372 52.2087C325.643 53.3896 321.478 53.98 316.879 53.98C308.613 53.98 302.553 52.4573 298.699 49.4118C297.891 45.8069 297.487 42.4195 297.487 39.2497C297.487 32.8479 298.886 27.0677 301.683 21.909C304.542 16.6881 307.898 13.0211 311.751 10.9079ZM307.276 35.8002C307.898 35.8624 309.545 35.8935 312.218 35.8935C314.952 35.8935 318.06 35.5205 321.541 34.7747C321.665 33.8424 321.758 32.879 321.82 31.8846C321.82 28.8391 320.95 25.9179 319.21 23.121C314.113 26.4772 310.135 30.7037 307.276 35.8002ZM344.009 51.1831C342.642 49.7536 341.958 48.0755 341.958 46.1487C341.958 44.222 342.642 42.5749 344.009 41.2075C345.438 39.778 347.117 39.0633 349.043 39.0633C351.032 39.0633 352.71 39.778 354.078 41.2075C355.445 42.5749 356.129 44.222 356.129 46.1487C356.129 48.0755 355.445 49.7536 354.078 51.1831C352.71 52.5505 351.032 53.2342 349.043 53.2342C347.117 53.2342 345.438 52.5505 344.009 51.1831ZM356.875 -2.98023e-08L359.019 3.07658L352.306 34.1221L345.501 34.8679L343.077 2.33074L356.875 -2.98023e-08Z" fill="white"/>
</g>
<defs>
<filter id="filter0_d_3_145" x="0" y="0" width="363.019" height="61.98" filterUnits="userSpaceOnUse" color-interpolation-filters="sRGB">
<feFlood flood-opacity="0" result="BackgroundImageFix"/>
<feColorMatrix in="SourceAlpha" type="matrix" values="0 0 0 0 0 0 0 0 0 0 0 0 0 0 0 0 0 0 127 0" result="hardAlpha"/>
<feOffset dy="4"/>
<feGaussianBlur stdDeviation="2"/>
<feComposite in2="hardAlpha" operator="out"/>
<feColorMatrix type="matrix" values="0 0 0 0 0 0 0 0 0 0 0 0 0 0 0 0 0 0 0.25 0"/>
<feBlend mode="normal" in2="BackgroundImageFix" result="effect1_dropShadow_3_145"/>
<feBlend mode="normal" in="SourceGraphic" in2="effect1_dropShadow_3_145" result="shape"/>
</filter>
</defs>
</svg>
