<svg width="88" height="84" viewBox="0 0 88 84" fill="none" xmlns="http://www.w3.org/2000/svg">
<path d="M72.2539 82.5209C76.5097 81.7041 79.2976 77.5919 78.4808 73.336C78.4808 73.336 74.0734 75.3223 71.136 75.9028C68.1985 76.4832 63.069 76.2941 63.069 76.2941C63.8858 80.5499 67.9981 83.3378 72.2539 82.5209Z" fill="white"/>
<path d="M78.4191 74.1563C78.2152 74.2659 77.928 74.366 77.7072 74.4279C77.6367 74.448 77.6549 74.3983 77.6061 74.4102C77.5149 74.4319 77.4328 74.4866 77.3408 74.505C77.3095 74.5112 77.3221 74.4395 77.2898 74.4473C77.1099 74.4919 76.9561 74.5713 76.7822 74.6271C75.9153 74.9051 75.0744 75.1985 74.1947 75.4695C73.9046 75.559 73.537 75.6208 73.2447 75.7368C73.2105 75.7504 73.2473 75.7956 73.242 75.8019C73.1572 75.8994 73.16 75.7844 73.0876 75.7913C72.7991 75.8193 72.4967 75.901 72.2366 75.9916C72.1265 76.0301 72.2665 76.1043 72.138 76.0756C72.1291 76.0737 72.1431 76.0108 72.1109 76.0128C72.0378 76.0177 71.9054 76.0615 71.8504 76.0702C71.7445 76.0866 71.7251 76.0918 71.6252 76.1142C71.4955 76.1428 71.3309 76.1515 71.1924 76.1883C71.1864 76.1899 71.1804 76.1915 71.1745 76.1932C71.1438 76.2022 71.1966 76.2519 71.1483 76.2715C71.1002 76.2911 70.9638 76.3109 70.915 76.3051C70.8679 76.2992 70.8791 76.2503 70.8695 76.2412C70.7903 76.1643 70.655 76.3114 70.6346 76.3175C70.2784 76.4251 69.9565 76.3931 69.615 76.429C69.3568 76.4562 69.0805 76.5038 68.8343 76.5194C68.5397 76.5378 68.2892 76.5218 68.0045 76.5429C67.9745 76.545 68.0135 76.6122 67.9768 76.615C67.5863 76.6439 67.1971 76.6519 66.807 76.6166C66.7679 76.6129 66.8163 76.5508 66.7772 76.5435C66.5383 76.5008 66.1586 76.3884 66.0232 76.6548C65.8596 76.647 65.6657 76.6385 65.5198 76.5863C65.4272 76.5526 65.516 76.4859 65.4037 76.5148C65.3776 76.5213 65.412 76.579 65.3727 76.5843C65.2086 76.6064 65.0303 76.5878 64.8714 76.6174C64.8393 76.6236 64.848 76.6755 64.8385 76.6848C64.7576 76.7604 64.6294 76.6345 64.6024 76.6253C64.3836 76.556 64.2304 76.5811 64.0275 76.5765C63.9809 76.5754 64.0348 76.646 63.9901 76.6474C63.7576 76.6539 63.5134 76.6429 63.2909 76.6058C63.237 76.5972 63.2886 76.5392 63.2627 76.5321C63.1702 76.5047 63.1344 76.5916 63.0581 76.5896L63.3594 76.2383C63.3611 76.2468 63.3618 76.2561 63.3613 76.2665C63.3605 76.2879 63.3083 76.2862 63.3036 76.291C63.2292 76.3672 63.3618 76.3931 63.3676 76.4071C63.4448 76.586 63.349 76.7374 63.4178 76.9142C63.4262 76.9351 63.4742 76.8692 63.494 76.9286C63.6265 77.3248 63.7665 77.7403 63.9011 78.1367C63.9222 78.1984 63.8586 78.178 63.855 78.1843C63.8008 78.2856 63.9323 78.2691 63.9459 78.2855C64.0506 78.4173 64.0361 78.6062 64.2214 78.6291C64.532 79.2642 65.0274 79.7603 65.4369 80.3399C65.4422 80.3472 65.388 80.3802 65.399 80.3947C65.5323 80.5689 65.5686 80.4709 65.7507 80.4775C65.796 80.4787 65.7852 80.6558 65.7864 80.6701C65.7886 80.7219 65.7015 80.7679 65.7058 80.7812C65.7446 80.8896 65.9257 80.6474 66.0259 80.7284C66.0287 80.7313 65.9806 80.764 65.9856 80.7752C66.0014 80.8101 66.0416 80.8137 66.056 80.8493C66.0888 80.9309 66.0224 81.0656 66.1688 81.0676C66.1875 81.0673 66.2708 80.9165 66.3597 80.9905C66.3949 81.0207 66.565 81.1339 66.6072 81.174C66.6491 81.2146 66.5861 81.2394 66.5882 81.2436C66.6797 81.3896 66.6139 81.383 66.6242 81.5171C66.6362 81.6511 66.7514 81.4201 66.7934 81.4121C66.8353 81.4042 66.9033 81.5141 66.9179 81.5464C66.9321 81.5787 66.8838 81.5915 66.9 81.6144C67.0092 81.765 67.0266 81.5393 67.0941 81.5301C67.2518 81.5063 67.251 81.7206 67.3507 81.7906C67.3774 81.8093 67.3729 81.7587 67.4004 81.7676C67.5084 81.8026 67.5456 81.8857 67.6855 81.8877C67.7088 81.8883 67.8476 81.8233 67.8771 81.926C67.8814 81.9408 67.8383 81.9746 67.879 82.0026C67.9396 82.0446 68.0582 82.1013 68.1365 82.1125C68.1943 82.1208 68.1592 82.0251 68.2184 82.072C68.2449 82.0929 68.1737 82.1164 68.225 82.152C68.276 82.1877 68.4231 82.234 68.4793 82.2493C68.5355 82.2649 68.5223 82.1987 68.528 82.1963C68.5618 82.1829 68.6757 82.1864 68.6851 82.1889C69.1573 82.3151 69.5911 82.4964 70.077 82.5078C70.115 82.5086 70.0953 82.444 70.1012 82.4435C70.2315 82.4281 70.1163 82.5858 70.2037 82.6483C70.1996 82.5205 70.252 82.5479 70.3438 82.539C70.388 82.5345 70.3667 82.4841 70.3709 82.4793C70.439 82.408 70.4795 82.506 70.4908 82.5262C70.5316 82.6003 70.5813 82.5158 70.6097 82.5649C70.6385 82.6136 70.5682 82.6838 70.6576 82.6844C70.683 82.6393 70.6195 82.5196 70.6861 82.5011C70.9338 82.4346 71.4011 82.5016 71.6035 82.486C71.8045 82.473 71.8679 82.4541 71.986 82.4526C72.1908 82.4475 72.1164 82.3791 72.2149 82.3178C72.2195 82.3149 72.2245 82.312 72.2299 82.3091C72.3503 82.2441 72.3313 82.4689 72.3593 82.511C72.3874 82.5528 72.3979 82.5015 72.4263 82.5217C72.4548 82.5418 72.4113 82.5836 72.4679 82.5812C72.5252 82.579 72.6538 82.4634 72.6607 82.4111C72.6756 82.3007 72.5846 82.2124 72.7322 82.2136C72.7407 82.2137 72.7293 82.2757 72.7614 82.2732C73.0156 82.2513 73.2672 82.1742 73.5181 82.1216C73.5527 82.1144 73.5458 82.1849 73.5663 82.1813C73.7802 82.1424 73.6705 82.0697 73.7312 81.9166C73.7674 82.0726 73.8649 82.1386 74.0153 82.073C74.1052 82.0334 74.0611 81.9772 74.0973 81.9068C74.1078 81.8858 74.1904 81.899 74.1875 81.8642C74.1777 81.7506 74.0689 81.6725 74.2349 81.6424C74.2423 81.6412 74.2482 81.7033 74.2719 81.6953C74.4252 81.6424 74.3903 81.5353 74.5326 81.4401C74.6436 81.366 74.8831 81.2993 75.0174 81.2225C75.1125 81.3732 75.2146 81.2555 75.1921 81.1209C75.2771 81.0675 75.3599 80.9983 75.4473 80.9529C75.4774 80.9372 75.4913 80.9914 75.498 80.9932C75.6031 81.0227 75.5646 80.901 75.5784 80.884C75.733 80.703 75.9381 80.6446 76.0419 80.4262C76.0456 80.4183 75.9699 80.3202 76.075 80.3444C76.0822 80.3461 76.0677 80.4381 76.1467 80.368C76.2252 80.2987 76.414 80.2015 76.4711 80.0539C76.4853 80.0181 76.4701 79.8855 76.5759 79.8832C76.5902 79.883 76.61 79.9142 76.6341 79.9166C76.7112 79.9236 76.6322 79.8239 76.7474 79.852C76.8623 79.8801 76.9976 79.8424 77.0331 79.6772C77.0345 79.672 76.9781 79.5834 77.0077 79.547C77.0552 79.4888 77.1351 79.4148 77.18 79.35C77.2014 79.319 77.1372 79.3034 77.1401 79.2974C77.2555 79.0721 77.3977 78.9528 77.5549 78.7303C77.5841 78.6892 77.5802 78.5252 77.6831 78.4719C77.7961 78.4118 78.0146 78.6501 78.0633 78.3923C78.0833 78.286 77.7888 78.015 78.0398 77.9337C78.1294 77.6005 78.3327 77.3328 78.3611 76.9803C78.3624 76.9644 78.2728 76.8886 78.2836 76.8545C78.2998 76.8037 78.3555 76.788 78.3682 76.7517C78.4226 76.5996 78.413 76.4461 78.4488 76.2965C78.4622 76.2393 78.5092 76.2691 78.5246 76.2002C78.5398 76.1311 78.4806 76.0739 78.5273 75.9854C78.5627 75.9186 78.7105 75.8656 78.7383 75.7701C78.6025 75.75 78.6137 75.6847 78.5889 75.5654C78.584 75.5425 78.5342 75.5619 78.5295 75.5508C78.509 75.5061 78.5518 75.4701 78.5283 75.4274C78.5226 75.4171 78.476 75.413 78.4687 75.4044C78.4054 75.3317 78.5167 75.2272 78.5359 75.2083C78.609 75.1373 78.5494 75.0997 78.5785 75.0435C78.6074 74.9869 78.6395 75.0738 78.6578 75.0068C78.6958 74.8672 78.6872 74.6875 78.684 74.5444C78.6825 74.4875 78.6215 74.5287 78.6198 74.5206C78.5996 74.4059 78.658 74.2828 78.5289 74.2279C78.843 74.1214 78.4931 74.1601 78.5404 73.9907C78.5442 73.9774 78.6937 73.9437 78.7213 73.9923C78.7489 74.0412 78.7089 74.1223 78.7492 74.1908C78.7588 74.2066 78.908 74.294 78.9174 74.3073C78.9913 74.409 78.7643 74.4353 78.7522 74.4411C78.6207 74.5082 78.7779 74.6195 78.789 74.6513C78.8406 74.7936 78.8078 74.9145 78.8394 75.0356C78.8596 75.1146 79.0081 75.1281 79.0008 75.1909C78.9753 75.4002 78.7627 75.4535 78.9229 75.6644C78.9565 75.7101 79.1237 75.6863 78.9785 75.8234C78.9694 75.8324 78.8392 75.9279 78.903 76.002C78.911 76.0114 78.958 76.0181 78.9604 76.0294C78.9752 76.1049 78.9302 76.1466 78.9347 76.2276C78.9391 76.3086 78.9479 76.4077 78.9138 76.493C78.8934 76.5446 78.792 76.5939 78.7652 76.614C78.6885 76.6708 78.7696 76.7702 78.6853 76.7957C78.6007 76.8204 78.5104 76.7087 78.4342 76.808C78.5525 76.8432 78.6723 76.8849 78.7904 76.9235C78.7186 77.1784 78.6027 77.4133 78.5168 77.662C78.5062 77.6929 78.58 77.6845 78.5701 77.7185C78.5275 77.8623 78.4352 77.965 78.3914 78.1137C78.3576 78.2289 78.3663 78.3779 78.3265 78.4994C78.1663 78.5068 78.1257 78.6922 78.049 78.8042C78.0223 78.8434 77.9909 78.8223 77.9639 78.8453C77.8626 78.9321 77.9997 78.9427 77.9994 78.9827C77.9959 79.1548 77.7473 79.0213 77.6625 79.17C77.6583 79.1775 77.7239 79.3535 77.7227 79.3721C77.7188 79.4888 77.67 79.3571 77.6264 79.4024C77.5465 79.4849 77.4731 79.5278 77.4314 79.6605C77.4196 79.6991 77.439 79.8305 77.3354 79.8463C77.3219 79.8484 77.2857 79.8138 77.2786 79.8183C77.153 79.9012 77.2728 80.0004 77.2615 80.0988C77.2497 80.1975 77.0836 80.2264 77.0434 80.2252C76.9384 80.2238 77.0511 80.1636 77.0474 80.1556C77.0034 80.0623 76.9566 80.1428 76.9044 80.1901C76.7826 80.097 76.7259 80.1745 76.8508 80.2393C76.8646 80.2462 76.89 80.196 76.9044 80.1901C76.9774 80.335 76.9167 80.4321 76.7326 80.4228C76.6463 80.418 76.6275 80.3278 76.5315 80.467C76.4873 80.5299 76.5829 80.5833 76.555 80.6517C76.4904 80.8087 76.2742 80.8759 76.1647 80.9916C76.1246 81.0341 76.2053 81.0404 76.1789 81.071C76.1086 81.1525 76.0088 81.1793 75.94 81.263C75.9337 81.2707 75.99 81.303 75.9645 81.3245C75.7703 81.488 75.5695 81.5869 75.3496 81.7317C75.2442 81.8017 75.0672 81.9509 74.9492 82.0107C74.7445 82.1173 74.4561 82.1676 74.2897 82.2687C74.1811 82.3344 74.2311 82.3775 74.1981 82.4377C74.1333 82.5549 73.9027 82.4956 73.8724 82.4835C73.8716 82.4832 73.9667 82.4288 73.9013 82.4221C73.8459 82.3749 73.8735 82.4827 73.8724 82.4835C73.852 82.477 73.6443 82.5426 73.6071 82.5675C73.5871 82.5815 73.619 82.6308 73.6081 82.6371C73.3498 82.7849 73.068 82.8854 72.7702 82.9308C72.7648 82.9309 72.7572 82.8669 72.7449 82.8679C72.5751 82.8801 72.4851 82.9764 72.3553 83.0492C72.3534 83.0503 72.3514 83.0514 72.3495 83.0525C72.2168 83.1251 72.0998 83.1281 72.0009 83.0317C71.8979 83.0615 71.7373 83.0327 71.6477 83.0124C71.5578 82.9922 71.5576 83.1171 71.55 83.1204C71.313 83.221 71.1666 83.1581 70.9136 83.1525C70.7935 83.1499 70.5552 83.1656 70.424 83.173C70.3203 83.1796 70.2606 83.1468 70.1641 83.1587C70.1511 83.1602 70.1601 83.2165 70.156 83.2184C70.044 83.2765 70.1061 83.145 70.0862 83.1191C70.0146 83.0245 69.9724 82.974 69.8351 83.0003C69.8038 83.0064 69.6894 83.1893 69.63 83.1926C69.5536 83.1966 69.5915 83.1313 69.5118 83.1366C69.505 83.137 69.4998 83.18 69.4522 83.1706C69.2304 83.1272 68.9957 83.0546 68.7681 83.003C68.7371 82.9957 68.7604 83.0722 68.715 83.0627C68.5018 83.0179 68.2722 82.9478 68.0818 82.8497C68.035 82.8253 68.0814 82.7903 68.0753 82.7732C68.0384 82.6697 67.9055 82.7551 67.889 82.7515C67.5037 82.6734 67.2777 82.451 66.9052 82.3211C66.8854 82.3148 66.6745 82.3553 66.6655 82.2179C66.6645 82.2086 66.6595 82.0709 66.5641 82.1088C66.5581 82.1111 66.5671 82.1865 66.5015 82.1413C66.4363 82.0962 66.3049 82.0643 66.2486 81.9494C66.2303 81.9129 66.227 81.7715 66.0906 81.7927C66.0822 81.7954 65.8295 81.8793 65.8672 81.7262C65.8736 81.7011 65.971 81.5814 65.8265 81.5743C65.7986 81.5729 65.8124 81.6259 65.75 81.6067C65.6538 81.577 65.5799 81.4683 65.4458 81.449C65.4226 81.446 65.2876 81.4719 65.2849 81.3655C65.2845 81.3489 65.3335 81.3226 65.3092 81.2946C65.1941 81.1615 65.0349 81.0651 64.9318 80.917C64.8954 80.8647 64.9762 80.8267 64.9458 80.7658C64.9151 80.7049 64.84 80.5986 64.7662 80.5765C64.6921 80.5541 64.6469 80.6999 64.5685 80.6325C64.2275 80.3367 64.0082 79.9379 63.7692 79.5653C63.7337 79.5096 63.7245 79.5817 63.6698 79.5009C63.4644 79.2065 63.1234 78.6759 63.09 78.3478C63.0622 78.0888 63.2455 78.3465 63.1992 78.1622C63.1776 78.0743 62.9973 78.0434 62.9843 78.0245C62.857 77.8437 62.8687 77.6766 62.7873 77.5012C62.7705 77.4646 62.7234 77.5218 62.7098 77.4902C62.6626 77.3821 62.6528 77.2548 62.6175 77.1494C62.6015 77.1018 62.5579 77.1236 62.5491 77.0778C62.5278 76.9686 62.5227 76.8667 62.5421 76.7527C62.5438 76.7424 62.6167 76.7923 62.6005 76.7133C62.5812 76.619 62.5815 76.5031 62.555 76.3927L62.4513 75.7247L63.0883 75.771C63.1178 75.7701 63.1591 75.7657 63.1968 75.7547C63.242 75.7423 63.2401 75.6328 63.3302 75.7109C63.3487 75.7272 63.3164 75.8579 63.4292 75.7472C63.4433 75.7287 63.622 75.5797 63.7063 75.6801C63.7313 75.7066 63.7825 75.8152 63.8333 75.7992C63.8401 75.7966 63.8139 75.7373 63.8556 75.7323C64.0034 75.7157 64.1539 75.7241 64.3047 75.7073C64.3457 75.7027 64.2852 75.6412 64.3466 75.6363C64.507 75.6226 64.7123 75.6393 64.874 75.6586C64.932 75.6659 64.8918 75.7162 64.896 75.7217C64.9639 75.811 65.0054 75.6906 65.0284 75.6836C65.1741 75.6415 65.2778 75.6977 65.4119 75.682C65.4476 75.6778 65.4219 75.6205 65.429 75.6153C65.5025 75.5648 65.4481 75.6683 65.4952 75.6793C65.6283 75.7106 65.7759 75.7044 65.9104 75.6952C65.96 75.6917 65.9032 75.6259 65.9478 75.6235C66.2079 75.6083 66.4808 75.6089 66.7362 75.6383C66.7843 75.6439 66.7556 75.6961 66.7659 75.7075C66.8372 75.7874 66.936 75.6725 66.9585 75.6611C67.062 75.609 67.1045 75.6529 67.1977 75.641C67.6518 75.5823 68.213 75.5825 68.6411 75.5694C69.1984 75.5518 69.6343 75.5592 70.1531 75.478C70.1857 75.4729 70.1437 75.4097 70.1716 75.4044C70.4563 75.3529 70.7373 75.3216 71.0099 75.265C71.0871 75.2489 71.1656 75.2305 71.2451 75.2087C71.2744 75.2007 71.218 75.1469 71.2643 75.1321C71.3565 75.1018 71.4814 75.0764 71.5832 75.0728C71.6329 75.0709 71.5824 75.1404 71.6323 75.1373C71.7489 75.1302 71.872 75.1034 71.984 75.0629C72.0319 75.0455 71.9408 75.0013 72.0044 74.9836C72.4365 74.8608 72.8578 74.7218 73.3217 74.6616C73.3535 74.6575 73.4214 74.7768 73.4775 74.7313C73.4707 74.6943 73.4567 74.6527 73.4464 74.6141C74.0696 74.3868 74.7053 74.2081 75.3351 73.9769C75.3615 73.9673 75.2909 73.9179 75.3417 73.8988C75.6382 73.7871 75.9167 73.6574 76.2431 73.6033C76.2758 73.5977 76.3073 73.7201 76.3885 73.6671C76.4031 73.6575 76.5273 73.5895 76.5529 73.5497C76.556 73.544 76.5098 73.4997 76.5521 73.4807C76.7958 73.3723 77.0586 73.2782 77.3192 73.2072C77.3599 73.1964 77.3429 73.2711 77.3726 73.2638C77.5875 73.2091 77.787 73.0721 77.9983 73.0416C78.146 73.0186 78.1356 73.1406 78.2499 73.2061C78.263 73.2167 78.3479 73.1817 78.3728 73.2381C78.4452 73.3755 78.4797 73.5459 78.5612 73.6905C78.5749 73.7234 78.6699 73.6389 78.6423 73.7454C78.6425 73.7517 78.5734 73.8137 78.5647 73.8494C78.5606 73.8733 78.6084 73.9207 78.5932 73.9556C78.5783 73.9904 78.5208 73.9583 78.4916 74.0042C78.46 74.0515 78.5011 74.1114 78.4191 74.1563ZM71.2463 82.9136C71.1636 82.8583 71.1625 83.078 71.2473 83.0207C71.2514 83.0177 71.2506 82.9163 71.2463 82.9136ZM78.4423 77.3579C78.3179 77.4252 78.4281 77.539 78.5232 77.4938C78.6183 77.4472 78.4802 77.3367 78.4423 77.3579ZM78.644 76.301C78.5464 76.4039 78.8472 76.4855 78.8109 76.3433C78.8089 76.3351 78.6497 76.2948 78.644 76.301ZM77.9452 73.3719C77.9472 73.3742 78.0037 73.3529 78.0054 73.349C78.0079 73.272 77.8921 73.3159 77.9452 73.3719ZM78.6943 75.2435C78.6506 75.2781 78.6919 75.3882 78.7472 75.3454C78.7919 75.3102 78.7491 75.1997 78.6943 75.2435ZM67.3064 81.8881C67.3067 81.8846 67.2677 81.862 67.2602 81.8789C67.2364 81.9336 67.3005 81.9465 67.3064 81.8881ZM78.5846 73.4644C78.6173 73.7291 78.3806 73.9143 78.37 73.636C78.3675 73.5851 78.4673 73.7315 78.4806 73.6643C78.5043 73.5395 78.3322 73.4895 78.3946 73.3548C78.4061 73.3296 78.5835 73.4487 78.585 73.4648C78.5849 73.4647 78.5847 73.4646 78.5846 73.4644ZM71.1862 82.6531C71.1845 82.6504 71.1225 82.6507 71.1212 82.6536C71.0906 82.7248 71.2166 82.7242 71.1862 82.6531ZM65.2784 80.268C65.2802 80.2614 65.1853 80.1558 65.1782 80.1562C65.0435 80.1811 65.2381 80.3982 65.2784 80.268ZM75.0221 81.2251C75.0386 81.1301 75.098 81.0795 75.1918 81.121C75.1351 81.1551 75.0796 81.1921 75.0221 81.2251Z" fill="white"/>
<path d="M65.8166 14.9989C65.8166 14.9989 80.6917 24.8407 82.5333 34.8634C84.375 44.8862 75.2484 66.3286 75.2484 66.3286C75.2484 66.3286 73.1528 67.9452 71.8618 68.3632C70.5709 68.7812 68.4171 68.7161 68.4171 68.7161L65.8166 14.9989Z" fill="white"/>
<path d="M69.4722 66.7301C70.0619 66.6551 70.8422 66.6201 71.2285 66.5777C71.255 66.5753 71.2727 66.5793 71.2867 66.5868C71.3297 66.6149 71.3329 66.6859 71.3957 66.6805C71.5629 66.6621 71.7314 66.5256 71.9565 66.4613C72.033 66.4393 72.0261 66.633 72.1055 66.6058C72.5454 66.451 72.9247 66.1618 73.3636 65.9086C73.7224 65.701 74.0922 65.4687 74.417 65.2509L73.996 65.7955C74.9355 63.853 75.771 61.8185 76.5913 59.7296C76.9093 58.9205 77.4141 57.9352 77.6395 57.057C77.6661 56.9535 77.5066 56.9668 77.5016 56.9437C77.4274 56.5825 77.6748 56.7773 77.7787 56.5906C78.1859 55.8613 78.4812 54.9897 78.6638 54.2118C78.7412 53.8798 78.3621 54.1175 78.6183 53.8432C78.6358 53.8241 78.7598 53.9514 78.8028 53.8684C78.9001 53.6802 78.9894 53.2906 79.0483 53.1374C79.1627 52.8418 79.1756 52.7928 79.261 52.5097C79.3786 52.124 79.5884 51.6763 79.6712 51.2508C79.6885 51.1594 79.5014 51.2343 79.5151 51.0848C79.5289 50.9353 79.6461 50.5616 79.717 50.4438C79.7881 50.326 79.8946 50.4133 79.9286 50.3982C80.2142 50.2755 80.0053 49.7505 80.0117 49.6924C80.1443 48.6294 80.5464 47.7938 80.7651 46.8209C80.9304 46.0827 81.0311 45.2852 81.1727 44.5777C81.3397 43.7452 81.5443 43.044 81.6447 42.2206C81.6554 42.1338 81.4551 42.2093 81.4676 42.1036C81.5979 40.9915 81.7287 39.877 81.8968 38.7775C81.9137 38.6654 82.0735 38.8166 82.1002 38.7045C82.2663 38.0324 82.5662 36.9144 81.8138 36.5555C81.8122 36.1048 81.7774 35.5563 81.8523 35.1432C81.8841 34.9684 81.9892 34.9992 82.0211 34.9575C82.0375 34.9354 82.0339 34.8926 81.9866 34.7893C81.9556 34.7216 81.8198 34.8445 81.7849 34.742C81.6376 34.3107 81.5578 33.818 81.3403 33.4118C81.2957 33.3294 81.1693 33.3975 81.1371 33.3809C80.8761 33.2433 81.074 32.7956 81.0668 32.7094C81.0197 32.0738 80.7683 31.6893 80.5218 31.1761C80.4641 31.0571 80.3637 31.2811 80.3021 31.1704C79.9834 30.5932 79.6621 29.9931 79.3909 29.3968C79.3307 29.2637 79.5382 29.2915 79.5162 29.2232C79.4155 28.9223 79.1209 29.0284 79.0155 28.7482C78.9927 28.6893 79.1271 28.6419 79.1335 28.6241C79.2335 28.3436 78.8657 28.4037 78.8342 28.3708C78.4238 27.9529 78.494 27.4492 78.1125 27.0266C78.0667 26.9769 78.019 27.203 77.8993 27.0575C77.1004 26.0892 76.273 25.0503 75.5203 24.0375C75.4033 23.8806 75.594 23.8924 75.5975 23.8724C75.6454 23.553 75.3091 23.6912 75.2559 23.6537C74.8427 23.3519 74.7184 22.8204 74.1889 22.8623C72.7867 21.2638 71.0472 20.0231 69.6401 18.4161C69.6213 18.3954 69.765 18.2969 69.7269 18.2562C69.2702 17.7676 69.2232 18.0636 68.6805 18.039C68.5448 18.0334 68.5264 17.5329 68.5219 17.4941C68.5044 17.3495 68.7406 17.2183 68.7258 17.1814C68.5858 16.8741 68.1165 17.5493 67.811 17.3166C67.8023 17.3083 67.9338 17.2183 67.9174 17.1869C67.87 17.0916 67.7443 17.0718 67.6947 16.9693C67.5765 16.7298 67.7703 16.3755 67.3311 16.34C67.2787 16.339 67.0495 16.7482 66.7923 16.533C66.6723 16.4331 66.1661 16.08 66.0499 15.9627C65.9154 15.8316 66.1056 15.7815 66.0983 15.7685C65.8412 15.3474 66.0174 15.3701 65.9889 14.9944C65.9803 14.9312 65.9715 14.8994 65.9581 14.8879C65.9296 14.8661 65.9009 14.8675 65.8865 14.8932L65.6844 14.7517L65.69 15.0051C65.815 15.0594 66.1499 15.0344 66.2057 15.097C66.288 15.1898 66.1411 15.5439 66.0883 15.6317C66.0355 15.7195 65.9351 15.6181 65.9065 15.6952C65.7203 16.2067 66.2635 15.8985 66.3823 16.0583C66.6634 16.435 66.1606 16.7633 66.1271 17.1222C66.1181 17.2193 66.2321 17.1349 66.2473 17.2203C66.3059 17.5584 66.1543 17.7708 66.3211 18.1507C66.3483 18.2128 66.6746 18.5106 66.456 18.7242C66.4245 18.7545 66.2916 18.6792 66.2697 18.8256C66.2369 19.0442 66.2276 19.4358 66.2819 19.6666C66.3222 19.8369 66.5251 19.6296 66.4696 19.8491C66.4448 19.9467 66.3118 19.7745 66.2756 19.9574C66.2393 20.1392 66.267 20.5984 66.2797 20.773C66.2926 20.9473 66.4491 20.844 66.4607 20.8575C66.527 20.9399 66.6209 21.271 66.6222 21.3006C66.7141 22.7924 66.5091 24.1821 66.6694 25.6312C66.6817 25.7449 66.848 25.6607 66.8516 25.678C66.9418 26.065 66.4749 25.779 66.3369 26.0591C66.6799 26.003 66.6252 26.167 66.6764 26.4402C66.7013 26.5719 66.8314 26.4932 66.8456 26.5047C67.058 26.6914 66.8026 26.841 66.7507 26.8788C66.5598 27.0185 66.7997 27.1489 66.6722 27.2439C66.5456 27.3387 66.3419 27.1444 66.3571 27.408C66.4842 27.476 66.7974 27.2646 66.8593 27.4623C67.0937 28.2084 66.9089 29.6312 66.912 30.24C66.915 30.8477 66.9473 31.0424 66.9198 31.3979C66.87 32.04 67.0981 31.7946 67.2268 32.1856C67.3557 32.5777 66.7573 32.413 66.6334 32.4763C66.5095 32.5385 66.6428 32.5934 66.5766 32.6665C66.5104 32.7394 66.417 32.5931 66.3988 32.7579C66.3806 32.9228 66.6275 33.3593 66.7627 33.4109C67.0491 33.5199 67.3338 33.304 67.2513 33.742C67.2464 33.7672 67.0876 33.6939 67.0765 33.79C66.9939 34.5531 67.0246 35.3403 66.9558 36.1018C66.9461 36.2065 66.7693 36.1219 66.7617 36.1829C66.682 36.8187 66.9616 36.5793 67.3011 36.9092C66.8678 36.8524 66.6143 37.0562 66.6349 37.5348C66.6472 37.8225 66.8324 37.7639 66.9736 37.9436C67.0162 37.9975 66.8972 38.2072 66.9872 38.2398C67.2815 38.3475 67.595 38.1401 67.4903 38.6397C67.4853 38.6616 67.3241 38.6004 67.3182 38.6756C67.279 39.1621 67.5834 39.2053 67.6452 39.7261C67.6937 40.1343 67.5451 40.8717 67.5377 41.3395C67.0544 41.3531 67.1863 41.7883 67.5279 41.9509C67.5289 42.2542 67.5635 42.5802 67.5317 42.875C67.5209 42.9764 67.3779 42.917 67.3634 42.9305C67.1358 43.1366 67.4661 43.2525 67.482 43.3172C67.6397 44.0193 67.4221 44.6081 67.6948 45.2723C67.7046 45.2959 68.0419 45.3185 67.8057 45.511C67.7894 45.5235 67.626 45.3077 67.6296 45.6261C67.6331 45.9446 67.4823 46.5527 67.6591 46.9866C67.7017 47.0916 67.9871 47.3486 67.7848 47.5757C67.7573 47.606 67.6596 47.579 67.6081 47.6233C67.4441 47.7664 67.7866 47.8236 67.5063 47.996C67.226 48.1683 67.0262 48.5083 67.2465 48.9439C67.2529 48.9578 67.5268 49.0501 67.5293 49.1903C67.5331 49.4141 67.4925 49.7341 67.5055 49.9673C67.5119 50.079 67.6752 49.9994 67.6792 50.0187C67.8091 50.7653 67.6862 51.3071 67.6606 52.115C67.6556 52.2631 67.9037 52.676 67.7376 52.9703C67.5559 53.2934 66.7211 53.0108 66.9512 53.7222C67.0433 54.0091 68.1004 54.3269 67.5872 54.8754C67.7697 55.8821 67.5395 56.8325 67.7792 57.8394C67.7898 57.8846 68.0869 58.0151 68.0881 58.1227C68.0894 58.2825 67.9581 58.3766 67.9547 58.4909C67.937 58.97 68.0741 59.401 68.0783 59.8619C68.0802 60.0369 67.9371 59.9826 67.9393 60.1913C67.9417 60.3999 68.133 60.5298 68.0575 60.8162C67.9999 61.0326 67.6329 61.2639 67.6026 61.5488C67.9753 61.5416 67.977 61.7362 68.092 62.0767C68.1143 62.1421 68.2403 62.0647 68.2576 62.0953C68.3305 62.2198 68.2289 62.3433 68.3074 62.4611C68.3263 62.4897 68.4535 62.485 68.4761 62.508C68.6732 62.7041 68.4036 63.0559 68.3567 63.1164C68.1784 63.348 68.3487 63.444 68.2826 63.6182C68.2164 63.7922 68.111 63.542 68.0755 63.7431C68.002 64.1602 68.0482 64.6892 68.0626 65.1084C68.0692 65.2756 68.2333 65.1534 68.2382 65.1771C68.2979 65.5207 68.1344 65.8789 68.4816 66.0542C67.6195 66.3362 68.5765 66.2586 68.4255 66.7611C68.4132 66.8007 68.0024 66.8702 67.9345 66.7237C67.8667 66.5773 67.9849 66.3444 67.8803 66.1417C67.8557 66.0937 67.4549 65.8312 67.4296 65.794C67.2318 65.5023 67.8471 65.4298 67.8803 65.4123C68.2375 65.2143 67.8038 64.8908 67.7706 64.8017C67.6185 64.3941 67.6883 64.0382 67.5773 63.6965C67.5054 63.473 67.0998 63.4704 67.1036 63.292C67.1159 62.6988 67.6701 62.4652 67.154 61.9318C67.0438 61.8174 66.6075 61.9575 66.9344 61.5127C66.955 61.4847 67.2576 61.1516 67.0476 60.9777C67.0211 60.9559 66.8923 60.9629 66.88 60.933C66.8002 60.7326 66.8962 60.5917 66.8363 60.372C66.7764 60.1524 66.6902 59.889 66.7216 59.6335C66.7404 59.4795 66.9709 59.2718 67.0261 59.1959C67.1854 58.9812 66.8972 58.7733 67.096 58.6354C67.2957 58.4965 67.6208 58.7335 67.7376 58.3888C67.4023 58.3925 67.0573 58.3803 66.7197 58.3765C66.6956 57.6347 66.7686 56.9001 66.7178 56.1571C66.7111 56.065 66.5358 56.168 66.524 56.0695C66.4752 55.6538 66.5859 55.2833 66.5139 54.8533C66.4574 54.5205 66.2491 54.1626 66.1842 53.8149C66.5568 53.5825 66.4017 53.0694 66.4184 52.6904C66.4241 52.5576 66.5268 52.5615 66.5556 52.4659C66.6619 52.1052 66.3315 52.2878 66.2735 52.1932C66.026 51.7871 66.7903 51.7143 66.7476 51.2234C66.7456 51.1974 66.3218 50.8987 66.2943 50.856C66.115 50.5853 66.4342 50.803 66.4559 50.6271C66.4956 50.306 66.5824 50.08 66.4447 49.7121C66.404 49.6049 66.1369 49.3558 66.3235 49.1347C66.3479 49.1056 66.4836 49.1145 66.4905 49.0917C66.6026 48.6798 66.178 48.6896 66.0231 48.4649C65.8683 48.24 66.1437 47.8679 66.2246 47.791C66.4336 47.5898 66.3249 47.9325 66.3468 47.9418C66.6076 48.0507 66.5511 47.7917 66.563 47.5912C66.9774 47.5422 66.939 47.2644 66.5736 47.3834C66.5338 47.3968 66.5801 47.5502 66.563 47.5912C66.1465 47.4358 66.0794 47.1318 66.4443 46.7747C66.6153 46.6075 66.8309 46.7473 66.7314 46.2694C66.6864 46.0526 66.4042 46.1509 66.3168 45.9618C66.1173 45.5298 66.3567 44.9444 66.2926 44.4922C66.2694 44.328 66.1204 44.4962 66.0991 44.3843C66.0421 44.0874 66.1469 43.818 66.0722 43.5206C66.0652 43.4937 65.9043 43.5681 65.8977 43.4748C65.8444 42.7678 65.9196 42.1463 65.8868 41.4071C65.8708 41.0499 65.7494 40.4158 65.7497 40.0449C65.7492 39.4023 65.9496 38.6019 65.8651 38.057C65.8107 37.7015 65.6504 37.7878 65.5312 37.6402C65.3002 37.3553 65.6631 36.8136 65.7198 36.7403C65.7217 36.7381 65.7752 37.0436 65.8515 36.8755C66.0225 36.7716 65.7207 36.7437 65.7198 36.7403C65.7564 36.6922 65.7639 36.0763 65.7266 35.9559C65.7063 35.8904 65.5526 35.935 65.5449 35.9008C65.366 35.0863 65.2867 34.2656 65.3191 33.4293C65.3215 33.4145 65.4965 33.4281 65.5 33.3934C65.554 32.9075 65.3263 32.6091 65.1808 32.2175C65.0353 31.826 65.0623 31.5086 65.3494 31.2588C65.2973 30.9607 65.4085 30.5239 65.4766 30.2723C65.5447 30.0208 65.2045 30.0026 65.1967 29.9811C64.9496 29.3118 65.1244 28.9095 65.1204 28.2029C65.1191 27.8669 65.0378 27.2042 64.9832 26.843C64.9395 26.5576 65.0104 26.3809 64.9469 26.119C64.9384 26.0836 64.7894 26.127 64.7831 26.1164C64.5885 25.8301 64.9638 25.9541 65.0267 25.89C65.2553 25.6576 65.3762 25.5149 65.2453 25.1426C65.2153 25.0567 64.6724 24.8286 64.6337 24.6712C64.5843 24.4666 64.7783 24.5353 64.7218 24.3213C64.7171 24.303 64.6 24.3125 64.5987 24.1788C64.5911 23.5582 64.6267 22.8795 64.5838 22.2363C64.5784 22.1484 64.3977 22.2701 64.3869 22.1433C64.3359 21.5482 64.3112 20.8943 64.3702 20.3093C64.3853 20.1653 64.5199 20.2486 64.5571 20.2157C64.782 20.0138 64.4288 19.7601 64.4201 19.7158C64.2052 18.6602 64.4736 17.8314 64.2746 16.7546C64.2631 16.696 63.8765 16.2595 64.1794 16.0417C64.1995 16.0268 64.5098 15.8109 64.2824 15.6442C64.2682 15.6339 64.1096 15.7668 64.1158 15.5479C64.1193 15.4238 64.08 15.259 64.0757 15.0832L63.9986 11.5993L66.7784 13.5453C66.8564 13.5992 66.8766 13.6211 66.9525 13.6923C66.9918 13.7386 67.0345 13.7988 67.0747 13.8743C67.1228 13.9767 67.1435 14.38 67.513 14.3302C67.5441 14.3299 68.237 14.1176 68.1433 14.5413C68.126 14.6098 67.8619 14.9368 68.2596 14.9612C68.3378 14.9669 68.2955 14.8192 68.4725 14.8769C68.7564 14.9742 68.9536 15.2624 69.336 15.3179C69.3997 15.3246 69.7646 15.2439 69.793 15.5397C69.7974 15.5859 69.6639 15.6601 69.7389 15.7379C70.0726 16.0913 70.5392 16.3403 70.8681 16.7311C70.9863 16.8707 70.7749 16.9915 70.8753 17.1515C70.9757 17.3114 71.2236 17.5912 71.4416 17.638C71.6533 17.6796 71.7257 17.2685 71.9631 17.4296C73.0089 18.1432 73.8058 19.1327 74.6999 20.0185C74.8314 20.1493 74.8085 19.949 75.0093 20.1365C75.7557 20.8252 77.0831 22.0069 77.473 22.8525C77.7875 23.5272 77.0642 22.978 77.3596 23.4387C77.5004 23.6589 78.0019 23.5927 78.0539 23.6323C78.5633 24.0116 78.698 24.4619 79.0938 24.8597C79.1756 24.9423 79.2371 24.7469 79.3054 24.8187C79.5404 25.0638 79.6992 25.3907 79.9055 25.6395C79.9987 25.7515 80.0865 25.6518 80.1591 25.7654C80.3337 26.0366 80.4566 26.2987 80.5373 26.6244C80.5445 26.6539 80.3017 26.5907 80.4333 26.7877C80.6474 27.1082 80.8093 27.5624 81.1531 27.8702C81.2549 27.9607 81.5108 27.807 81.4861 28.157C81.4807 28.2306 81.1373 28.3515 81.571 28.4719C81.6424 28.4887 82.2905 28.7687 82.1887 29.1427C82.1628 29.2415 81.993 29.5398 82.1088 29.6602C82.1255 29.6761 82.2256 29.5236 82.3019 29.6345C82.5684 30.0279 82.7683 30.4755 83.0133 30.9052C83.0786 31.0196 83.1513 30.7736 83.2439 30.9475C83.4978 31.4221 83.706 32.0842 83.8201 32.6114C83.8625 32.8072 83.6898 32.7173 83.6802 32.7358C83.5183 33.0273 83.8686 33.0616 83.9088 33.1317C84.15 33.5594 84.0896 33.9652 84.2154 34.3922C84.2495 34.5113 84.3861 34.396 84.4044 34.4176C84.4372 34.4587 84.4538 34.4881 84.4591 34.5095C84.4829 34.605 84.2749 34.5384 84.2726 34.6708C84.2629 35.1184 84.339 35.6299 84.3951 36.0554C84.4162 36.2164 84.5814 36.0191 84.598 36.165C84.6995 37.0457 84.6891 37.9284 84.5629 38.7396C84.5386 38.894 84.4026 38.7916 84.3697 38.8227C84.1398 39.0371 84.4268 39.3684 84.4513 39.4432C84.5638 39.784 84.4315 39.9072 84.4313 40.2061C84.4354 41.6559 84.1006 43.3919 83.8096 44.6938C83.4314 46.3927 83.008 47.6659 82.6464 49.263C82.623 49.3645 82.8284 49.3077 82.8105 49.396C82.5702 50.5339 82.2007 51.6143 81.9301 52.7427C81.9075 52.8353 82.1146 52.7522 82.0839 52.9027C82.0217 53.2128 81.9018 53.585 81.7558 53.876C81.6853 54.0168 81.6008 53.7743 81.5327 53.9166C81.3738 54.2485 81.2499 54.6102 81.1664 54.9734C81.1308 55.129 81.3739 54.9532 81.3142 55.1513C80.9164 56.4844 80.511 57.8097 79.8302 59.064C79.7835 59.1498 79.4108 59.1098 79.4105 59.3233C79.5012 59.3711 79.614 59.4096 79.7141 59.4517C79.0975 61.3907 78.2787 63.2291 77.5102 65.1155C77.4773 65.1962 77.7125 65.1282 77.6502 65.2837C77.4152 65.8691 77.1955 66.4734 76.9142 67.0376L76.6894 67.5208L76.3542 67.7621C76.0437 67.9732 75.7567 68.1345 75.4281 68.2848C75.3316 68.3288 75.1829 68.019 74.9634 68.2309C74.9262 68.2687 74.5712 68.5583 74.5088 68.6841C74.5009 68.7024 74.6586 68.7905 74.5336 68.8753C73.9274 69.2712 73.3032 69.6455 72.3613 69.9059C72.1559 69.9578 71.9641 69.9911 71.7798 70.0145C71.6189 70.0335 71.7497 69.8318 71.6367 69.843C70.855 69.9142 70.1029 70.097 69.4259 69.9689C68.9782 69.8788 69.1345 69.5809 68.9015 69.2965C68.8692 69.2566 68.6022 69.2501 68.5896 69.0819C68.5603 68.6604 68.686 68.2 68.6398 67.7506C68.6218 67.6546 68.3311 67.7527 68.503 67.5227C68.5141 67.5077 68.7455 67.4321 68.8024 67.3521C68.8418 67.2971 68.7693 67.1271 68.8503 67.0564C68.9276 66.9857 69.0184 67.1276 69.1491 67.0419C69.2788 66.9546 69.2167 66.7638 69.4722 66.7301ZM65.7806 29.1398C65.932 28.9026 65.3349 28.8976 65.4894 29.1387C65.4976 29.1504 65.7732 29.152 65.7806 29.1398ZM67.2179 56.8825C67.466 56.57 67.0699 56.3835 66.8773 56.6048C66.6849 56.8261 67.1427 56.9777 67.2179 56.8825ZM67.5602 59.9822C67.7503 59.6217 66.9032 59.6075 67.0921 59.9745C67.1028 59.9958 67.5491 60.0032 67.5602 59.9822ZM69.958 69.1746C69.9535 69.1673 69.7627 69.1714 69.7582 69.1792C69.6658 69.3746 70.0537 69.3661 69.958 69.1746ZM67.9183 63.0572C68.0272 62.9423 67.8801 62.6337 67.7446 62.7765C67.6357 62.8914 67.7828 63.2003 67.9183 63.0572ZM65.8369 17.1459C65.8456 17.1419 65.8472 17.0085 65.7971 17.0136C65.636 17.0305 65.6906 17.2133 65.8369 17.1459ZM68.1818 68.3002C68.1761 67.524 68.8509 67.0205 68.813 67.868C68.8062 68.0214 68.5746 67.5495 68.5212 67.747C68.4238 68.1083 68.8732 68.3234 68.6561 68.6978C68.6163 68.7656 68.1806 68.3446 68.1808 68.2989C68.1811 68.2993 68.1815 68.2998 68.1818 68.3002ZM66.4894 28.9731C66.497 28.9681 66.4956 28.7837 66.4876 28.7797C66.2937 28.6892 66.2965 29.0607 66.4894 28.9731ZM70.1197 18.5972C70.1155 18.6151 70.4406 18.9047 70.4589 18.9002C70.831 18.8067 70.1782 18.2233 70.1197 18.5972ZM67.5252 41.3475C67.7251 41.5391 67.7591 41.7783 67.5281 41.9499C67.5311 41.7497 67.5232 41.5487 67.5252 41.3475Z" fill="white"/>
<g clip-path="url(#clip0_7_322)">
<path d="M51.9604 25.9154L34.6987 43.9928L58.8924 80.1475L37.6889 81.5064L23.8251 55.5459L19.7475 59.3517L17.8446 80.5553L6.83516 81.5064L1.26246 3.89651L25.0484 0.226685L20.8349 48.2063L44.4848 20.2068L51.9604 25.9154Z" fill="white"/>
<path d="M52.8945 31.4589C51.6134 32.9722 49.73 34.761 48.2425 36.0669C47.7767 36.4765 47.8184 36.0836 47.489 36.3589C46.8451 36.8975 46.3938 37.5413 45.7437 38.0604C45.5274 38.2317 45.4859 37.7218 45.2654 37.9074C44.0591 38.9262 43.1038 40.0676 41.9467 41.1617C40.2297 42.785 38.538 44.4157 36.8589 46.0555L37.1811 42.3315C40.0491 46.9589 42.9797 51.5301 45.9601 56.2027C47.3667 58.4074 48.8462 61.2417 50.4741 63.4018C50.6644 63.6538 50.8386 63.3111 50.8949 63.3455C51.7697 63.8921 51.0331 64.0086 51.3 64.5691C52.3607 66.7928 53.8427 69.0631 55.2551 70.941C55.8568 71.7394 55.8538 70.5372 56.102 71.5804C56.1199 71.6524 55.683 71.64 55.8037 71.8887C56.0779 72.4521 56.7858 73.3954 57.03 73.8112C57.499 74.6128 57.5873 74.7382 58.0716 75.4694C58.7312 76.4704 59.3771 77.7545 60.1596 78.7783C60.3275 78.9968 60.4287 78.4915 60.7238 78.8208C60.7411 78.8399 60.7595 78.8612 60.7788 78.8846L63.0138 82.0674L59.0376 82.4128C58.5544 82.492 57.505 82.5272 57.1325 82.4693C56.7368 82.4084 56.8846 82.1114 56.8113 82.0505C56.2077 81.5328 54.9184 82.3857 54.7475 82.4157C51.6283 82.9408 48.9076 82.6761 45.9603 82.866C43.7229 83.0112 41.3397 83.309 39.2093 83.4256C38.7331 83.452 38.27 83.4703 37.8157 83.4857L36.595 83.5957L35.9396 82.4407C35.0674 80.677 34.331 79.032 33.3617 77.2756C33.2362 77.0476 33.0014 77.5191 32.8473 77.2404C31.2103 74.2813 29.6698 71.297 28.3394 68.1905C28.2063 67.8789 28.7437 68.0852 28.6306 67.7631C27.9309 65.7954 27.0477 62.5622 25.0225 62.253C24.42 60.9888 23.6783 59.4594 23.3804 58.1995C23.188 57.3874 23.9194 57.8854 23.2979 57.0935C23.1582 56.9146 22.978 57.3405 22.7924 57.0595C22.6383 56.826 22.4903 56.5836 22.3458 56.3359L24.9694 56.7719C24.1472 57.5997 23.2277 58.3951 22.5099 59.269C22.3286 59.4911 22.6052 59.6737 22.5859 59.771C22.4485 60.4068 21.5755 60.6655 21.1072 60.8084L21.7323 59.5298C21.6648 59.6412 21.6132 59.7273 21.5968 59.7777C21.0106 61.6018 21.0535 62.9763 20.8876 64.7097C20.849 65.112 21.3227 64.6749 21.301 65.0633C21.1825 67.0775 20.9586 69.1549 20.5909 71.1045C20.5081 71.538 20.177 71.1028 20.1187 71.3083C19.8658 72.2149 20.5408 72.4814 20.3117 73.3521C20.2643 73.5355 19.9594 73.4028 19.9218 73.4336C19.3323 73.9168 20.0585 74.4478 20.0632 74.5864C20.1394 76.3384 19.2386 77.3732 19.202 79.0555C19.1984 79.2572 19.6366 78.8414 19.6023 79.4053C19.5763 79.8365 19.5472 80.2699 19.515 80.7048L19.4283 82.0645L17.989 82.2258C14.6371 82.569 11.1434 82.7516 7.83463 82.7538C7.2536 82.7553 7.63949 82.4209 7.60003 82.3872C7.30584 82.1466 7.08006 82.1855 6.90393 82.3028L6.11911 82.3908L6.03828 81.5636C5.90313 81.3538 5.65831 81.2116 5.63525 81.1111C5.31928 79.6407 5.86714 78.2063 4.87504 77.2632C4.74246 70.949 3.77639 64.7239 4.15226 58.4256C4.1561 58.3455 4.54656 58.4604 4.55261 58.3009C4.62928 56.3799 4.06457 56.7883 3.25124 55.5793C3.04694 55.2747 3.85021 54.2458 3.90803 54.1557C4.12138 53.8273 4.7103 54.1097 4.74846 54.0021C5.04495 53.1133 3.18418 53.3883 3.09997 52.224C3.10048 52.1874 3.45581 52.3156 3.48304 52.2154C3.56874 51.9041 3.41028 51.6129 3.50749 51.3073C3.73295 50.6076 4.62464 50.3001 4.02099 49.2996C3.94288 49.1731 2.89606 49.45 2.87155 48.4069C2.86268 47.9909 2.71277 46.1578 2.74463 45.6388C2.77644 45.1203 3.14375 45.4484 3.15592 45.4107C3.50879 43.9946 3.73388 44.5058 4.3536 43.7645C4.97081 43.0235 3.39382 43.3299 3.19597 43.0601C2.9986 42.7898 3.29886 41.7486 3.41067 41.49C3.52254 41.2315 3.76215 41.5267 3.81968 41.2998C4.19396 39.7964 2.98376 40.7118 2.69653 40.2459C2.01675 39.1476 3.13267 38.174 3.17325 37.121C3.18417 36.8361 2.93204 37.086 2.88884 36.8362C2.7213 35.8461 3.04635 35.2201 2.62739 34.1101C2.55907 33.9285 1.78394 33.0626 2.26185 32.4317C2.33087 32.3422 2.64201 32.5599 2.67735 32.1303C2.73061 31.4886 2.71275 30.3404 2.56549 29.6651C2.45662 29.1665 2.01365 29.7787 2.11861 29.1339C2.16557 28.8473 2.48646 29.3492 2.55105 28.8124C2.6158 28.2785 2.50667 26.9329 2.4601 26.4213C2.41338 25.9106 2.06602 26.2169 2.0383 26.1774C1.87853 25.9375 1.63087 24.9687 1.62508 24.882C1.2661 20.5103 1.59581 16.4316 1.08496 12.1868C1.0454 11.8537 0.673894 12.1042 0.663866 12.0537C0.419347 10.921 1.51437 11.7492 1.80182 10.9251C1.02378 11.0971 1.13227 10.6149 0.98816 9.81507C0.918072 9.42962 0.628791 9.66305 0.595077 9.62983C0.0912564 9.08699 0.659781 8.64302 0.774554 8.53096C1.19666 8.1172 0.635739 7.7401 0.917544 7.45893C1.19712 7.17809 1.68207 7.74348 1.6209 6.9708C1.32386 6.77422 0.629486 7.401 0.468124 6.82259C0.254176 6.05717 0.149759 5.04653 0.10143 3.97984L0 2.94221L1.08496 2.74607C3.04553 2.49639 5.21311 2.42259 6.36453 2.28443C8.13443 2.07212 8.69523 1.93292 9.73682 1.87541C11.6183 1.77172 10.8556 1.33574 11.9682 0.910672C13.0842 0.485117 12.7284 1.90221 12.9385 2.16264C13.1454 2.42341 13.2779 2.10167 13.5047 2.22758C13.7309 2.35356 13.3237 2.61548 13.8077 2.60121C14.292 2.58684 15.5127 1.87778 15.6349 1.55271C15.8932 0.86417 15.2053 0.28949 16.4986 0.329165C16.5731 0.331878 16.3924 0.71794 16.6747 0.710577C18.9155 0.640605 21.2028 0.304804 23.4361 0.204121C23.7432 0.190826 23.5332 0.621699 23.7126 0.618364C24.5898 0.602631 24.8889 0.471996 25.0514 0.246424L25.0284 0.2249C25.2324 0.46418 25.5959 0.562709 25.9387 1.13372C24.9808 0.82074 24.3334 1.32751 24.2046 2.72751C24.1269 3.56908 24.5667 3.46165 24.8199 4.03261C24.8963 4.20394 24.5507 4.77393 24.7421 4.8995C25.3674 5.31312 26.1516 4.81653 25.7322 6.2348C25.7127 6.29692 25.371 6.06366 25.33 6.28064C25.0633 7.68312 25.7352 7.91274 25.684 9.44957C25.6441 10.6541 25.038 12.7496 24.8501 14.1087C23.7532 13.9834 23.8916 15.295 24.6037 15.8846C24.4949 16.7678 24.4538 17.7284 24.2738 18.5754C24.2122 18.867 23.9108 18.6455 23.8732 18.6796C23.2836 19.2021 23.9873 19.6519 23.9994 19.8457C24.0984 21.9429 23.3912 23.5824 23.7637 25.6084C23.7773 25.6802 24.531 25.8611 23.9269 26.3408C23.8855 26.3716 23.5954 25.6878 23.4868 26.616C23.3781 27.5442 22.8147 29.2625 23.0552 30.5855C23.1129 30.9056 23.6634 31.7508 23.1233 32.343C23.05 32.4218 22.8392 32.31 22.7065 32.4213C22.2835 32.7819 23.0365 33.065 22.3401 33.4711C21.6436 33.8774 21.0678 34.7988 21.4058 36.1415C21.4153 36.1841 22 36.5463 21.9543 36.9552C21.8809 37.6079 21.672 38.5252 21.6159 39.2084C21.5894 39.5357 21.9876 39.3597 21.9896 39.4171C22.0094 41.6345 21.5333 43.1695 21.1794 45.512C21.1139 45.9413 21.5229 47.2277 21.04 48.0276C20.9954 48.1015 20.9421 48.1614 20.8817 48.2104L20.7989 48.1759C21.642 48.1186 22.4083 49.5917 23.3478 47.8464C23.7628 47.0787 22.6459 44.7198 24.5767 44.3412C26.2648 41.87 28.5225 40.1732 30.1163 37.6115C30.1882 37.4965 29.9557 36.7444 30.1663 36.5091C30.4798 36.1606 30.8825 36.164 31.114 35.9216C32.0899 34.9108 32.7153 33.7596 33.619 32.7536C33.9615 32.3713 34.0905 32.715 34.4992 32.259C34.9074 31.803 34.8483 31.2193 35.5388 30.7174C36.0614 30.3394 37.124 30.4177 37.737 29.8477C37.1077 29.2746 37.4894 28.8499 37.9724 27.9301C38.0649 27.7531 37.7039 27.7217 37.736 27.6282C37.8616 27.2429 38.2733 27.1359 38.3764 26.7564C38.4018 26.6644 38.1825 26.4739 38.1908 26.3881C38.253 25.6515 39.393 25.3146 39.5899 25.2577C40.3418 25.0371 40.2503 24.5599 40.7038 24.2867C41.1567 24.0141 40.8362 24.7231 41.2924 24.343C42.2376 23.5549 43.2066 22.3349 44.0111 21.4032C44.3307 21.0303 43.8183 21.0361 43.8571 20.9769C44.0488 20.6995 44.284 20.4572 44.5048 20.2236L44.4691 20.2275C44.9639 20.651 45.4204 21.0171 46.0339 20.835C45.3815 22.8495 46.6382 21.0528 47.5493 22.2515C47.6205 22.3466 47.1631 23.1854 46.73 23.0292C46.297 22.8728 45.9471 22.2342 45.3319 22.0363C45.1864 21.9891 43.9927 22.1909 43.8706 22.1651C43.5191 22.0905 43.3992 21.8816 43.3885 21.6426L45.865 21.3725C45.4534 21.3708 44.9691 21.0414 44.9125 21.0323C43.9317 20.8973 44.0084 22.2839 43.8871 22.5295C43.3328 23.6536 42.5144 24.315 42.0224 25.2313C41.6995 25.8295 42.3636 26.4756 42.0048 26.8565C40.8126 28.1231 39.4362 27.7542 39.2343 29.7261C39.19 30.1481 40.1868 30.5336 38.7684 30.9817C38.6793 31.0097 37.5215 31.254 37.5246 31.9627C37.5252 32.0519 37.7515 32.2403 37.7128 32.3245C37.4486 32.8852 37.0117 33.0389 36.6766 33.6097C36.3416 34.1805 35.9634 34.8878 35.4066 35.3923C35.0713 35.6965 34.2806 35.7825 34.0394 35.86C33.3523 36.0738 33.4172 36.9801 32.8168 36.9648C32.2125 36.9505 32.1443 35.923 31.2706 36.4859C31.8313 37.0077 32.3765 37.5789 32.926 38.1206C31.5001 39.767 29.9283 41.2445 28.5441 42.9358C28.373 43.146 28.8659 43.1997 28.6907 43.4318C27.95 44.4101 27.0353 45.0385 26.3046 46.0846C25.7401 46.8954 25.3768 48.0004 24.7969 48.8569C24.0821 48.8004 23.5074 49.3828 22.9741 50.0131L17.1729 56.7203L18.0454 47.9612C18.0822 47.5478 18.1033 47.1303 18.1624 46.7632C18.2239 46.3787 18.4545 46.4251 18.5547 46.1566C18.9269 45.1432 18.1136 45.562 18.0173 45.2668C17.6069 44.0004 19.3603 44.0491 19.4436 42.6059C19.4486 42.5295 18.6007 41.5157 18.5541 41.3822C18.2482 40.5333 18.8895 41.2756 19.003 40.7711C19.2105 39.8499 19.4894 39.2217 19.3131 38.1041C19.2605 37.7782 18.7481 36.9622 19.2508 36.3823C19.3166 36.306 19.62 36.378 19.6437 36.314C20.0479 35.1534 19.0851 35.0374 18.8177 34.3304C18.5503 33.6233 19.3089 32.634 19.5197 32.4377C20.0657 31.9235 19.6945 32.8838 19.7407 32.9183C20.2899 33.3242 20.2571 32.5512 20.3574 31.9716C21.3116 31.9702 21.3265 31.1487 20.4576 31.3704C20.3626 31.396 20.411 31.8582 20.3574 31.9716C19.4735 31.3775 19.4333 30.4696 20.3884 29.5547C20.836 29.1265 21.2718 29.6068 21.2221 28.1821C21.2 27.5355 20.5263 27.7255 20.3982 27.1454C20.1059 25.8201 20.8612 24.1978 20.8821 22.8599C20.8897 22.3743 20.4916 22.813 20.4845 22.4801C20.4645 21.5964 20.8 20.8481 20.7401 19.9571C20.7341 19.8763 20.3436 20.0381 20.3628 19.7643C20.5014 17.6885 20.8991 15.9053 21.0957 13.7425C21.1905 12.6975 21.1486 10.8105 21.2851 9.7314C21.5195 7.86074 22.2655 5.59972 22.2743 3.98488C22.2817 2.93181 21.8879 3.12839 21.6727 2.65799C21.2551 1.75006 22.2735 0.297268 22.4284 0.103207C22.4335 0.0973154 22.4425 1.00484 22.6765 0.541566C23.1006 0.297513 22.4292 0.113502 22.4284 0.103207C22.4398 0.088727 22.453 0.0528177 22.4674 0L25.4434 2.78721C25.016 2.77605 23.5699 2.93876 23.2657 3.05C23.0793 3.11842 23.2411 3.453 23.1429 3.48203C20.8068 4.16422 18.4319 4.62203 15.9881 4.83096C15.9444 4.83043 15.9479 4.42771 15.8459 4.43137C14.4189 4.47273 13.5965 5.09161 12.4858 5.55509C11.3752 6.01841 10.4448 6.06416 9.65733 5.49522C8.79922 5.71454 7.50345 5.60923 6.75628 5.53929C6.00918 5.46934 6.02679 6.24951 5.96586 6.27439C4.37284 6.9357 3.26574 6.85818 1.73546 6.96228L4.35656 3.67431C4.35259 3.96901 4.35403 4.27982 4.36686 4.61372C4.4034 5.59869 4.65529 7.5396 4.81607 8.59733C4.94442 9.43321 4.79993 9.95272 4.9712 10.7191C4.99417 10.8228 5.33019 10.6922 5.34571 10.7233C5.81892 11.5583 4.94905 11.2032 4.81183 11.3925C4.31272 12.0788 4.05086 12.4995 4.38702 13.5883C4.46413 13.8394 5.72708 14.4965 5.83124 14.9569C5.96446 15.5557 5.5145 15.3585 5.66503 15.9846C5.67751 16.0382 5.94417 16.0077 5.96046 16.3997C6.0396 18.219 6.0261 20.2096 6.18839 22.0945C6.20952 22.352 6.61004 21.9911 6.64757 22.3627C6.82332 24.1064 6.94513 26.0227 6.86879 27.7392C6.84866 28.1618 6.53276 27.9205 6.45109 28.0177C5.95753 28.6145 6.78978 29.3506 6.81394 29.4803C7.41031 32.5702 6.87989 35.0058 7.44207 38.1585C7.47411 38.33 8.40094 39.6014 7.73064 40.2464C7.68613 40.2904 6.99896 40.9303 7.53498 41.414C7.5685 41.444 7.91765 41.051 7.92528 41.6926C7.93298 42.3342 8.25756 43.3444 7.90804 44.2522C7.79804 44.5396 7.11765 45.249 7.75719 46.0366C7.80156 46.0878 9.20485 47.2739 8.33288 47.7959C8.18929 47.8807 7.22621 47.8719 7.78821 48.8265C7.89697 49.0088 8.08588 48.6502 8.255 49.1388C8.51534 49.8874 8.33156 50.9173 8.82548 51.825C8.91275 51.9833 9.61259 52.6333 9.15945 53.2275C9.08853 53.3206 8.75691 53.1773 8.74232 53.4749C8.67147 54.8906 8.99085 56.3447 8.87197 57.7854C8.83046 58.2957 8.29519 58.0748 8.19449 58.6108C8.09388 59.1469 8.03682 60.2165 8.31249 60.7501C8.58824 61.2838 9.36868 60.6231 9.49379 61.4433C10.0376 65.0091 9.8095 68.5964 9.99592 72.1825C10.0235 72.7143 10.2866 72.2529 10.3484 73.0352C10.522 75.2193 10.9277 78.5957 10.9205 81.213L6.4825 77.426C7.3209 77.4157 8.082 77.4494 8.70198 77.5492C10.7493 77.877 8.26035 78.4761 9.80928 78.5473C10.5566 78.581 11.2735 77.5558 11.4493 77.5103C13.1655 77.0534 14.4132 77.3724 15.9705 77.107C16.292 77.0519 15.9409 76.6919 16.2149 76.6493C16.6344 76.5826 17.0676 76.5635 17.4988 76.5525L13.8436 80.1959C13.9234 79.6708 14.0152 79.1516 14.0423 78.6536C14.0634 78.2488 13.7608 78.2965 13.8169 77.9269C13.9479 77.0432 14.1429 76.2687 14.4979 75.4276C14.5304 75.3506 14.8508 75.916 14.9234 75.2604C15.04 74.1984 15.4322 72.9021 15.2595 71.6527C15.207 71.2819 14.5318 71.207 15.0691 70.4683C15.1814 70.3133 15.9749 70.5951 15.3547 69.6227C15.2518 69.4593 14.4421 67.8467 15.1196 67.1518C15.298 66.9685 16.008 66.5234 15.9427 66.0772C15.9314 66.0165 15.5467 66.2212 15.5438 65.8561C15.5396 64.57 15.6984 63.2368 15.7021 61.9163C15.7024 61.5636 15.2797 62.051 15.2921 61.5264C15.3106 60.7365 15.3958 59.8449 15.5091 58.9713L15.7087 57.2468L16.844 56.2407C17.3953 55.7654 17.9527 55.3121 18.4549 54.9165C18.8646 54.5947 18.8157 55.0681 18.8665 55.0672C19.6882 55.0575 19.441 54.2662 19.5586 54.0968C20.0221 53.4404 20.5637 53.0404 21.0961 52.622L25.0644 49.1018L27.3532 53.6618C27.5119 54.0313 27.6777 54.3992 27.9111 54.7627C28.0832 55.0324 28.2908 54.6652 28.3488 54.7062C28.9327 55.1408 28.1373 55.0095 28.2715 55.4103C28.6453 56.5344 29.2837 57.669 29.8801 58.6891C30.0996 59.0635 30.2344 58.439 30.4271 58.7773C31.5751 60.7758 32.6684 62.9069 33.5266 64.9973C33.6876 65.3913 33.2815 65.3062 33.259 65.4182C33.0971 66.194 34.1285 66.6536 34.2833 66.8034C34.9885 67.4838 34.911 67.9358 35.3452 68.6374C37.4095 71.9641 39.5209 76.2753 41.1864 79.6385L37.4353 77.5499C37.5462 77.5462 37.6563 77.5426 37.7654 77.5389C42.7126 77.3702 46.5635 77.426 51.267 77.0461C51.566 77.0226 51.2372 76.6193 51.4946 76.5936C53.8831 76.367 56.2539 76.2797 58.6344 76.1243L55.5418 82.3894C55.0211 81.6135 54.4906 80.842 53.9386 80.0785C53.7783 79.8556 53.6648 80.4071 53.3963 80.0573C52.8432 79.34 52.2248 78.3771 51.8232 77.5462C51.6267 77.1422 52.2451 77.4472 52.0415 77.0439C51.568 76.1045 50.9692 75.1577 50.3192 74.3026C50.0419 73.9388 50.084 74.7389 49.7501 74.2491C47.4686 70.9125 45.2024 67.653 43.3725 63.9633C43.2472 63.7103 43.8035 63.0424 43.3395 62.6366C43.1223 62.728 42.8974 62.8815 42.681 63.0027C39.2982 58.1871 36.2999 53.1867 33.0558 48.2585C32.9189 48.0507 32.7908 48.6537 32.524 48.2528C32.0908 47.6021 31.6527 46.9623 31.2196 46.3209L29.3676 43.3928L31.671 41.1018C33.0366 39.6598 34.42 38.2475 36.0653 36.982C36.2917 36.8071 36.7537 37.4487 37.2444 36.7647C37.3304 36.6435 38.1226 35.6638 38.2247 35.3125C38.2367 35.2631 37.8162 35.1782 38.0879 34.8783C39.6719 33.1397 41.4334 31.4149 43.2146 29.8705C43.5026 29.6217 43.5034 30.1803 43.711 30.0054C45.1811 28.7628 46.4063 27.0544 47.923 25.974C48.9392 25.2518 49.1092 26.0407 50.0339 26.0242C50.1645 26.0217 50.6986 25.4837 51.0023 25.7195C51.7673 26.3108 52.2754 27.3037 53.1208 27.9027C53.3025 28.0321 53.8316 27.1337 53.8024 27.9368C53.7992 27.9918 53.419 28.6465 53.4247 28.9026C53.4281 29.0803 53.8664 29.1844 53.8044 29.4813C53.7424 29.7781 53.3112 29.7576 53.1525 30.1963C52.9955 30.6365 53.4452 30.8064 52.8945 31.4589ZM3.39316 5.23032C2.67056 4.96584 2.77981 6.32602 3.45043 5.89309C3.48266 5.87056 3.4303 5.24304 3.39316 5.23032ZM29.152 40.5729C28.125 40.8585 28.4103 41.8885 29.1654 41.7129C29.9201 41.5371 29.4641 40.4852 29.152 40.5729ZM34.7117 33.3115C33.6857 33.7926 35.0555 35.1618 35.469 34.0676C35.4935 34.0044 34.7715 33.2833 34.7117 33.3115ZM48.0859 28.3353C48.1054 28.341 48.4945 27.9591 48.4905 27.9373C48.3783 27.4289 47.6006 28.1929 48.0859 28.3353ZM40.1964 26.0787C39.7896 26.1557 39.4227 27.0571 39.9284 26.9615C40.3353 26.8845 40.7028 25.9824 40.1964 26.0787ZM3.83382 37.0452C3.81435 37.0573 3.82411 37.4482 3.9379 37.4322C4.30427 37.3793 4.16139 36.8445 3.83382 37.0452ZM50.6673 25.5453C48.9023 24.1061 48.773 22.0015 50.6338 23.6489C50.9709 23.9471 49.5564 23.4658 49.9233 23.9267C50.5953 24.7693 51.7545 24.3951 52.2768 25.4689C52.3707 25.6641 50.7658 25.6302 50.6628 25.5446C50.6643 25.5448 50.6658 25.5451 50.6673 25.5453ZM2.76042 3.67395C2.74435 3.65822 2.2073 3.72381 2.19721 3.74342C1.97365 4.21508 3.05563 4.0832 2.76042 3.67395ZM4.62708 59.8422C4.59097 59.8747 4.64508 61.1291 4.68325 61.1674C5.43485 61.7698 5.32755 59.2337 4.62708 59.8422ZM24.8188 14.1276C25.2002 14.7534 25.1894 15.4611 24.6045 15.8819C24.6847 15.3003 24.7406 14.7126 24.8188 14.1276Z" fill="white"/>
</g>
<defs>
<clipPath id="clip0_7_322">
<rect width="63.069" height="83.6031" fill="white"/>
</clipPath>
</defs>
</svg>
